<svg width="25" height="25" viewBox="0 0 25 25" fill="none" xmlns="http://www.w3.org/2000/svg">
<path d="M13.9687 12.5L18.4479 8.03124C18.6441 7.83509 18.7543 7.56905 18.7543 7.29166C18.7543 7.01426 18.6441 6.74822 18.4479 6.55207C18.2518 6.35592 17.9857 6.24573 17.7083 6.24573C17.4309 6.24573 17.1649 6.35592 16.9687 6.55207L12.5 11.0312L8.03125 6.55207C7.8351 6.35592 7.56906 6.24573 7.29166 6.24573C7.01427 6.24573 6.74823 6.35592 6.55208 6.55207C6.35593 6.74822 6.24574 7.01426 6.24574 7.29166C6.24574 7.56905 6.35593 7.83509 6.55208 8.03124L11.0312 12.5L6.55208 16.9687C6.45445 17.0656 6.37695 17.1808 6.32407 17.3077C6.27119 17.4347 6.24396 17.5708 6.24396 17.7083C6.24396 17.8458 6.27119 17.982 6.32407 18.1089C6.37695 18.2359 6.45445 18.3511 6.55208 18.4479C6.64892 18.5455 6.76413 18.623 6.89106 18.6759C7.018 18.7288 7.15415 18.756 7.29166 18.756C7.42918 18.756 7.56533 18.7288 7.69226 18.6759C7.8192 18.623 7.93441 18.5455 8.03125 18.4479L12.5 13.9687L16.9687 18.4479C17.0656 18.5455 17.1808 18.623 17.3077 18.6759C17.4347 18.7288 17.5708 18.756 17.7083 18.756C17.8458 18.756 17.982 18.7288 18.1089 18.6759C18.2359 18.623 18.3511 18.5455 18.4479 18.4479C18.5455 18.3511 18.623 18.2359 18.6759 18.1089C18.7288 17.982 18.756 17.8458 18.756 17.7083C18.756 17.5708 18.7288 17.4347 18.6759 17.3077C18.623 17.1808 18.5455 17.0656 18.4479 16.9687L13.9687 12.5Z" fill="#FFC700"/>
</svg>
